<svg fill-opacity="0.7" width="17" height="20" viewBox="0 0 17 20" fill="none" xmlns="http://www.w3.org/2000/svg">
<path d="M13.801 11.4266C13.5281 11.7316 13.5281 12.2262 13.801 12.5312C14.0738 12.8363 14.5161 12.8362 14.7889 12.5312L16.6659 10.4323C16.9408 10.125 16.9352 9.62882 16.6659 9.32766L14.7888 7.22879C14.516 6.92372 14.0737 6.92376 13.8009 7.22879C13.5281 7.53381 13.5281 8.02842 13.8009 8.33349L14.4854 9.09887L8.69857 9.09883C8.31278 9.09883 8 9.44854 8 9.87995C8 10.3114 8.31275 10.6611 8.69857 10.6611L14.4855 10.6611L13.801 11.4266Z" fill="black"/>
<path d="M0.69839 20H12.0817C12.4674 20 12.78 19.6502 12.78 19.2188V16.25C12.78 15.8185 12.4674 15.4688 12.0817 15.4688C11.696 15.4688 11.3833 15.8185 11.3833 16.25V18.4375H1.39675L1.39675 1.5625H11.3833V3.75C11.3833 4.18148 11.696 4.53125 12.0817 4.53125C12.4674 4.53125 12.78 4.18148 12.78 3.75V0.78125C12.78 0.349766 12.4674 0 12.0817 0H0.69839C0.312685 0 2.91998e-05 0.349766 2.91998e-05 0.78125L2.91998e-05 19.2188C2.91998e-05 19.6502 0.312685 20 0.69839 20Z" fill="black"/>
</svg>
